HIERARCHY
ROOT hip
{
	OFFSET	0.00  0.00  0.00 
	CHANNELS 6 Xposition Yposition Zposition Xrotation Zrotation Yrotation
	JOINT abdomen
	{
		OFFSET	0.000000 0.000000 0.000000
		CHANNELS 3 Xrotation Zrotation Yrotation
		JOINT chest
		{
			OFFSET	0.000000 5.018152 -1.882228
			CHANNELS 3 Xrotation Zrotation Yrotation
			JOINT neckDummy
			{
				OFFSET	0.000000 8.316447 0.784897
				CHANNELS 3 Xrotation Yrotation Zrotation
				JOINT neck
				{
					OFFSET	0.000000 2.280413 -0.392801
					CHANNELS 3 Xrotation Zrotation Yrotation
					JOINT head
					{
						OFFSET	0.000000 3.496879 0.529469
						CHANNELS 3 Xrotation Zrotation Yrotation
						JOINT figureHair
						{
							OFFSET	0.000000 4.699570 0.720622
							CHANNELS 3 Zrotation Yrotation Xrotation
							End Site
							{
								OFFSET 0.000000 -6.419331 0.000000
							}
						}
					}
				}
			}
			JOINT lCollar
			{
				OFFSET	0.599237 8.316447 0.784897
				CHANNELS 3 Yrotation Zrotation Xrotation
				JOINT lShldr
				{
					OFFSET	6.421198 0.010146 -0.332128
					CHANNELS 3 Zrotation Yrotation Xrotation
					JOINT lForeArm
					{
						OFFSET	10.552783 0.025574 0.125508
						CHANNELS 3 Yrotation Zrotation Xrotation
						JOINT lHand
						{
							OFFSET	11.035963 0.319619 0.041520
							CHANNELS 3 Zrotation Yrotation Xrotation
							End Site
							{
								OFFSET 10.353753 0.000000 0.000000
							}
						}
					}
				}
			}
			JOINT rCollar
			{
				OFFSET	-0.599237 8.316447 0.784897
				CHANNELS 3 Yrotation Zrotation Xrotation
				JOINT rShldr
				{
					OFFSET	-6.421198 0.010146 -0.332128
					CHANNELS 3 Zrotation Yrotation Xrotation
					JOINT rForeArm
					{
						OFFSET	-10.552783 0.025574 0.125508
						CHANNELS 3 Yrotation Zrotation Xrotation
						JOINT rHand
						{
							OFFSET	-11.035963 0.319619 0.041520
							CHANNELS 3 Zrotation Yrotation Xrotation
							End Site
							{
								OFFSET -10.353753 0.000000 0.000000
							}
						}
					}
				}
			}
		}
	}
	JOINT lThigh
	{
		OFFSET	4.500466 -6.400484 -1.832696
		CHANNELS 3 Xrotation Zrotation Yrotation
		JOINT lShin
		{
			OFFSET	-1.359117 -18.918689 1.179887
			CHANNELS 3 Xrotation Zrotation Yrotation
			JOINT lFoot
			{
				OFFSET	-0.652380 -17.215186 -0.312137
				CHANNELS 3 Xrotation Yrotation Zrotation
				End Site
				{
					OFFSET 0.000000 0.000000 10.353752
				}
			}
		}
	}
	JOINT rThigh
	{
		OFFSET	-4.500466 -6.400484 -1.832696
		CHANNELS 3 Xrotation Zrotation Yrotation
		JOINT rShin
		{
			OFFSET	1.359117 -18.918689 1.179887
			CHANNELS 3 Xrotation Zrotation Yrotation
			JOINT rFoot
			{
				OFFSET	0.652380 -17.215186 -0.312137
				CHANNELS 3 Xrotation Yrotation Zrotation
				End Site
				{
					OFFSET 0.000000 0.000000 10.353752
				}
			}
		}
	}
}
MOTION
Frames:     12
Frame Time: 0.066667
0.994552 40.989651 0.562035 -1.728760 -9.547900 -0.326709 -0.115528 -6.886040 -2.575950 14.005100 11.193800 2.547370 0.000000 0.000000 0.000000 -0.460901 -9.764480 6.476710 23.900700 4.997470 -19.077499 0.000000 0.000000 0.000000 3.540560 -7.187660 -0.014568 -51.770901 8.976350 18.700899 -95.791496 9.545630 26.519600 5.969490 -0.173112 31.175699 -2.021920 5.690310 -0.063351 62.294601 29.584999 15.823300 23.580400 20.566601 -0.210362 2.261370 0.879272 0.282967 -15.093266 14.305773 -2.017740 36.724964 -4.098417 -2.950286 -20.437069 1.163581 -0.220074 -2.715594 7.001796 0.329137 10.149717 3.038865 -8.898087 -5.472914 -20.362209 -0.347394 
0.994552 40.989651 0.562035 -1.728760 -9.547900 -0.326709 -0.115528 -6.886040 -2.575950 13.193542 11.035504 2.391259 0.000000 0.000000 0.000000 -1.210987 -9.692931 7.488195 20.510338 5.484578 -12.445210 0.000000 0.000000 0.000000 3.540560 -7.187660 -0.014568 -51.770901 8.976350 18.700899 -95.182892 9.496939 26.346453 5.969490 -0.173112 31.175699 -2.021920 5.690310 -0.063351 62.294601 29.584999 15.823300 23.580400 20.566601 -0.210362 2.261370 0.879272 0.282967 -15.093266 14.305773 -2.017740 36.724964 -4.098417 -2.950286 -20.437069 1.163581 -0.220074 -2.715594 7.001796 0.329137 10.149717 3.038865 -8.898087 -5.472914 -20.362209 -0.347394 
0.994552 40.989651 0.562035 -1.728760 -9.547900 -0.326709 -0.115528 -6.886040 -2.575950 12.206174 10.842916 2.201330 0.000000 0.000000 0.000000 -2.138758 -9.604433 8.790725 16.305590 6.081212 -4.268601 0.000000 0.000000 0.000000 3.540560 -7.187660 -0.014568 -51.770901 8.976350 18.700899 -94.443497 9.434601 26.136032 5.969490 -0.173112 31.175699 -2.021920 5.690310 -0.063351 62.294601 29.584999 15.823300 23.580400 20.566601 -0.210362 2.261370 0.879272 0.282967 -15.093266 14.305773 -2.017740 36.724964 -4.098417 -2.950286 -20.437069 1.163581 -0.220074 -2.715594 7.001796 0.329137 10.149717 3.038865 -8.898087 -5.472914 -20.362209 -0.347394 
0.994552 40.989651 0.562035 -1.728760 -9.547900 -0.326709 -0.115528 -6.886040 -2.575950 11.214252 10.649442 2.010525 0.000000 0.000000 0.000000 -3.120079 -9.510827 10.171836 11.857388 6.711897 4.378211 0.000000 0.000000 0.000000 3.540560 -7.187660 -0.014568 -51.770901 8.976350 18.700899 -93.696571 9.384115 25.923725 5.969490 -0.173112 31.175699 -2.021920 5.690310 -0.063351 62.294601 29.584999 15.823300 23.580400 20.566601 -0.210362 2.261370 0.879272 0.282967 -15.093266 14.305773 -2.017740 36.724964 -4.098417 -2.950286 -20.437069 1.163581 -0.220074 -2.715594 7.001796 0.329137 10.149717 3.038865 -8.898087 -5.472914 -20.362209 -0.347394 
0.994552 40.989651 0.562035 -1.728760 -9.547900 -0.326709 -0.115528 -6.886040 -2.575950 10.339400 10.478800 1.842240 0.000000 0.000000 0.000000 -4.079931 -9.419271 11.450373 7.522314 7.337037 12.873566 0.000000 0.000000 0.000000 3.540560 -7.187660 -0.014568 -51.770901 8.976350 18.700899 -93.026199 9.373680 25.733900 5.969490 -0.173112 31.175699 -2.021920 5.690310 -0.063351 62.294601 29.584999 15.823300 23.580400 20.566601 -0.210362 2.261370 0.879272 0.282967 -15.093266 14.305773 -2.017740 36.724964 -4.098417 -2.950286 -20.437069 1.163581 -0.220074 -2.715594 7.001796 0.329137 10.149717 3.038865 -8.898087 -5.472914 -20.362209 -0.347394 
0.994552 40.989651 0.562035 -1.728760 -9.547900 -0.326709 -0.115528 -6.886040 -2.575950 9.678388 10.349869 1.715089 0.000000 0.000000 0.000000 -4.943294 -9.336916 12.445180 3.656943 7.917037 20.595812 0.000000 0.000000 0.000000 3.540560 -7.187660 -0.014568 -51.770901 8.976350 18.700899 -92.499588 9.425008 25.586010 5.969490 -0.173112 31.175699 -2.021920 5.690310 -0.063351 62.294601 29.584999 15.823300 23.580400 20.566601 -0.210362 2.261370 0.879272 0.282967 -15.093266 14.305773 -2.017740 36.724964 -4.098417 -2.950286 -20.437069 1.163581 -0.220074 -2.715594 7.001796 0.329137 10.149717 3.038865 -8.898087 -5.472914 -20.362209 -0.347394 
0.994552 40.989651 0.562035 -1.728760 -9.547900 -0.326709 -0.115528 -6.886040 -2.575950 9.228532 10.262124 1.628555 0.000000 0.000000 0.000000 -5.635150 -9.270920 12.975100 0.617856 8.412300 26.923300 0.000000 0.000000 0.000000 3.540560 -7.187660 -0.014568 -51.770901 8.976350 18.700899 -92.116096 9.533859 25.479786 5.969490 -0.173112 31.175699 -2.021920 5.690310 -0.063351 62.294601 29.584999 15.823300 23.580400 20.566601 -0.210362 2.261370 0.879272 0.282967 -15.093266 14.305773 -2.017740 36.724964 -4.098417 -2.950286 -20.437069 1.163581 -0.220074 -2.715594 7.001796 0.329137 10.149717 3.038865 -8.898087 -5.472914 -20.362209 -0.347394 
0.994552 40.989651 0.562035 -1.728760 -9.547900 -0.326709 -0.115528 -6.886040 -2.575950 8.962289 10.210192 1.577342 0.000000 0.000000 0.000000 -6.099504 -9.226623 12.922132 -1.332564 8.791308 31.383053 0.000000 0.000000 0.000000 3.540560 -7.187660 -0.014568 -51.770901 8.976350 18.700899 -91.858124 9.689509 25.410030 5.969490 -0.173112 31.175699 -2.021920 5.690310 -0.063351 62.294601 29.584999 15.823300 23.580400 20.566601 -0.210362 2.261370 0.879272 0.282967 -15.093266 14.305773 -2.017740 36.724964 -4.098417 -2.950286 -20.437069 1.163581 -0.220074 -2.715594 7.001796 0.329137 10.149717 3.038865 -8.898087 -5.472914 -20.362209 -0.347394 
0.994552 40.989651 0.562035 -1.728760 -9.547900 -0.326709 -0.115528 -6.886040 -2.575950 8.852120 10.188705 1.556150 0.000000 0.000000 0.000000 -6.356466 -9.202112 12.420916 -2.308702 9.054859 34.096840 0.000000 0.000000 0.000000 3.540560 -7.187660 -0.014568 -51.770901 8.976350 18.700899 -91.708138 9.881237 25.371563 5.969490 -0.173112 31.175699 -2.021920 5.690310 -0.063351 62.294601 29.584999 15.823300 23.580400 20.566601 -0.210362 2.261370 0.879272 0.282967 -15.093266 14.305773 -2.017740 36.724964 -4.098417 -2.950286 -20.437069 1.163581 -0.220074 -2.715594 7.001796 0.329137 10.149717 3.038865 -8.898087 -5.472914 -20.362209 -0.347394 
0.994552 40.989651 0.562035 -1.728760 -9.547900 -0.326709 -0.115528 -6.886040 -2.575950 8.870481 10.192286 1.559682 0.000000 0.000000 0.000000 -6.445165 -9.193653 11.669228 -2.519132 9.211823 35.335083 0.000000 0.000000 0.000000 3.540560 -7.187660 -0.014568 -51.770901 8.976350 18.700899 -91.648529 10.098313 25.359180 5.969490 -0.173112 31.175699 -2.021920 5.690310 -0.063351 62.294601 29.584999 15.823300 23.580400 20.566601 -0.210362 2.261370 0.879272 0.282967 -15.093266 14.305773 -2.017740 36.724964 -4.098417 -2.950286 -20.437069 1.163581 -0.220074 -2.715594 7.001796 0.329137 10.149717 3.038865 -8.898087 -5.472914 -20.362209 -0.347394 
0.994552 40.989651 0.562035 -1.728760 -9.547900 -0.326709 -0.115528 -6.886040 -2.575950 8.989831 10.215567 1.582640 0.000000 0.000000 0.000000 -6.404730 -9.197512 10.864852 -2.172432 9.271075 35.368237 0.000000 0.000000 0.000000 3.540560 -7.187660 -0.014568 -51.770901 8.976350 18.700899 -91.661758 10.330017 25.367699 5.969490 -0.173112 31.175699 -2.021920 5.690310 -0.063351 62.294601 29.584999 15.823300 23.580400 20.566601 -0.210362 2.261370 0.879272 0.282967 -15.093266 14.305773 -2.017740 36.724964 -4.098417 -2.950286 -20.437069 1.163581 -0.220074 -2.715594 7.001796 0.329137 10.149717 3.038865 -8.898087 -5.472914 -20.362209 -0.347394 
0.994552 40.989651 0.562035 -1.728760 -9.547900 -0.326709 -0.115528 -6.886040 -2.575950 9.182629 10.253173 1.619726 0.000000 0.000000 0.000000 -6.274293 -9.209955 10.205572 -1.477178 9.241493 34.466755 0.000000 0.000000 0.000000 3.540560 -7.187660 -0.014568 -51.770901 8.976350 18.700899 -91.730247 10.565622 25.391926 5.969490 -0.173112 31.175699 -2.021920 5.690310 -0.063351 62.294601 29.584999 15.823300 23.580400 20.566601 -0.210362 2.261370 0.879272 0.282967 -15.093266 14.305773 -2.017740 36.724964 -4.098417 -2.950286 -20.437069 1.163581 -0.220074 -2.715594 7.001796 0.329137 10.149717 3.038865 -8.898087 -5.472914 -20.362209 -0.347394 
